<svg id="Camada_6" data-name="Camada 6" xmlns="http://www.w3.org/2000/svg" viewBox="0 0 1092 207.34"><defs><style>.cls-1{fill:#fff;}</style></defs><title>Prancheta 1</title><path class="cls-1" d="M355,99.29c44.78,40.48,110.58,49.19,147.81,50.64h22.9A10.29,10.29,0,0,0,536,139.64V2.5A2.5,2.5,0,0,0,533.5,0h-253A2.5,2.5,0,0,0,278,2.5V204.84a2.5,2.5,0,0,0,2.5,2.5h253a2.5,2.5,0,0,0,2.5-2.5v-31a22.23,22.23,0,0,0-4.11-12.94l-2.34-2.34a27,27,0,0,0-33.79,1.5c-.22.19-.42.39-.63.6-.83.86-1.69,1.8-2.61,2.8a.11.11,0,0,0-.06.06l-1.22,1.31c-7.42,7.91-18.79,18.35-44.93,20.46-.3,0-.6,0-.89,0H370.19a33.2,33.2,0,0,1-25.5-20.5,42.9,42.9,0,0,1-2.55-9,10.25,10.25,0,0,1-.14-1.74V87.58Zm10.65-59.6c43.77.91,133.15,7.4,134.82,45.23C500.4,117.14,422.93,143.18,355,81q-6.57-6-13-13.14V39.69S351.41,39.39,365.65,39.69Z"/><path class="cls-1" d="M633,99.29c44.78,40.48,110.58,49.19,147.81,50.64h22.9A10.29,10.29,0,0,0,814,139.64V2.5A2.5,2.5,0,0,0,811.5,0h-253A2.5,2.5,0,0,0,556,2.5V204.84a2.5,2.5,0,0,0,2.5,2.5h253a2.5,2.5,0,0,0,2.5-2.5v-31a22.23,22.23,0,0,0-4.11-12.94l-2.34-2.34a27,27,0,0,0-33.79,1.5c-.22.19-.42.39-.63.6-.83.86-1.69,1.8-2.61,2.8a.11.11,0,0,0-.06.06l-1.22,1.31c-7.42,7.91-18.79,18.35-44.93,20.46-.3,0-.6,0-.89,0H648.19a33.2,33.2,0,0,1-25.5-20.5,42.9,42.9,0,0,1-2.55-9,10.25,10.25,0,0,1-.14-1.74V87.58Zm10.65-59.6c43.77.91,133.15,7.4,134.82,45.23C778.4,117.14,700.93,143.18,633,81q-6.57-6-13-13.14V39.69S629.41,39.39,643.65,39.69Z"/><path class="cls-1" d="M898,204.84V118.28A129.63,129.63,0,0,0,911,138a156.47,156.47,0,0,0,39.58,34.83,198,198,0,0,0,31.86,16.08c2.82,1.13,5.69,2.21,8.63,3.25,23.3,8.22,50.36,13.52,81.08,14.85q7.39.33,15.08.34h2.27a2.5,2.5,0,0,0,2.5-2.5V2.5a2.5,2.5,0,0,0-2.5-2.5h-253A2.5,2.5,0,0,0,834,2.5V204.84a2.51,2.51,0,0,0,2.5,2.5h59A2.5,2.5,0,0,0,898,204.84Zm4-136.55a65.69,65.69,0,0,1,3.42-7.66C917.42,37.76,942.67,22,971.89,22c40.66,0,73.64,30.51,73.89,68.24,0,.15,0,.29,0,.44,0,30.49-21.36,56.33-50.93,65.3q-.7.23-1.41.42l-1.28.35a76,76,0,0,1-14.58,2.5h0c-1.88.14-3.77.21-5.68.21a54.83,54.83,0,0,1-5.9-.31c-28.37-3-51.72-26.84-61.72-54.3l-.42-1.18A89.27,89.27,0,0,1,901,93.74a71.59,71.59,0,0,1-.7-10.2A63.57,63.57,0,0,1,902,68.29Z"/><path class="cls-1" d="M194,2.5V89.06a129.63,129.63,0,0,0-13-19.71,156.47,156.47,0,0,0-39.58-34.83,198,198,0,0,0-31.86-16.08c-2.82-1.13-5.69-2.21-8.63-3.25C77.63,7,50.57,1.67,19.85.34Q12.45,0,4.77,0H2.5A2.5,2.5,0,0,0,0,2.5V204.84a2.5,2.5,0,0,0,2.5,2.5h253a2.5,2.5,0,0,0,2.5-2.5V2.5A2.51,2.51,0,0,0,255.5,0h-59A2.5,2.5,0,0,0,194,2.5ZM190,139a65.69,65.69,0,0,1-3.42,7.66c-12,22.87-37.24,38.63-66.46,38.63-40.66,0-73.64-30.51-73.89-68.24,0-.15,0-.29,0-.44,0-30.49,21.36-56.33,50.93-65.3q.7-.23,1.41-.42l1.28-.35a76,76,0,0,1,14.58-2.5h0c1.88-.14,3.77-.21,5.68-.21a54.83,54.83,0,0,1,5.9.31c28.37,3,51.72,26.84,61.72,54.3l.42,1.18A89.27,89.27,0,0,1,191,113.6a71.59,71.59,0,0,1,.7,10.2A63.57,63.57,0,0,1,190,139Z"/></svg>