<svg id="svg1545" xmlns="http://www.w3.org/2000/svg" viewBox="0 0 497.1 80.75"><defs><style>.cls-1{fill:#fff;}</style></defs><title>selo-cadastur</title><g id="layer1"><g id="g124"><g id="g126"><g id="g1312"><path id="path1314" class="cls-1" d="M198,17.11c-17.65,0-32.05,9.37-32.05,29.08,0,11.61,10,19,22.9,19a48.67,48.67,0,0,0,13.88-1.89L204,53.74a33.16,33.16,0,0,1-10.56,2c-7.76,0-12.41-4.19-12.41-11.12,0-11.17,7.31-18,17.94-18A20.39,20.39,0,0,1,208.84,29l3.25-9.72A42.87,42.87,0,0,0,198,17.11" transform="translate(-0.01 0)"/></g><g id="g1316"><path id="path1318" class="cls-1" d="M227.21,56.88c-3.1,0-4.07-2.09-4.07-4.67,0-9.16,7.32-15.8,14-15.8a6.94,6.94,0,0,1,2,.28l-1.62,6.22c-2,7.77-5.76,14-10.34,14M239.51,28.4c-14,0-30.87,8.25-30.87,25.45,0,6.63,3.84,11.39,12.11,11.39,6.64,0,10.63-3.5,13.73-8.25-.51,2.72-1.18,5.73-1.4,7.49h14a59.33,59.33,0,0,1,1.55-10.35L254,30.29c-2.74-1-9.53-1.89-14.55-1.89" transform="translate(-0.01 0)"/></g><g id="g1320"><path id="path1322" class="cls-1" d="M275.65,57c-3.55,0-4.58-2.66-4.58-5.6,0-5,2.58-14.8,9.31-14.8,3.62,0,4.5,2.79,4.5,5.66,0,4.89-2.72,14.74-9.22,14.74m29.23-43H291.3l-4.51,20.2c-1.4-3.57-5-5.8-10.11-5.8-11.6,0-20.09,11-20.09,25.08,0,4.33,2.22,11.67,12.33,11.67,5.62,0,9.89-2.23,13.36-7.06l-1.11,6.3h12.7c.37-2.31.74-4.68,1.7-8.88Z" transform="translate(-0.01 0)"/></g><g id="g1324"><path id="path1326" class="cls-1" d="M322.17,56.88c-3.11,0-4.07-2.09-4.07-4.67,0-9.16,7.31-15.8,14-15.8a7,7,0,0,1,2,.28l-1.63,6.22c-2,7.77-5.76,14-10.33,14M334.5,28.36c-14,0-30.87,8.25-30.87,25.45,0,6.63,3.84,11.39,12.11,11.39,6.64,0,10.63-3.5,13.73-8.25-.51,2.72-1.17,5.73-1.4,7.49h14a60.09,60.09,0,0,1,1.56-10.35L349,30.26c-2.74-1-9.52-1.89-14.54-1.89" transform="translate(-0.01 0)"/></g><g id="g1328"><path id="path1330" class="cls-1" d="M373.84,28.36c-8.26,0-20.46,2.45-20.46,12.3,0,9.65,16.33,9,16.33,13.49,0,3.21-5.17,3.78-7.76,3.78a23,23,0,0,1-10.56-2.73l-2.51,8.18a48.2,48.2,0,0,0,13.44,1.82c8.94,0,20.68-2.38,20.68-12.93,0-9.3-16.69-8.8-16.69-13.43,0-2.92,4.51-3.36,6.87-3.36a27.36,27.36,0,0,1,10,2.1L385.84,30a49.9,49.9,0,0,0-12-1.69" transform="translate(-0.01 0)"/></g><g id="g1332"><path id="path1334" class="cls-1" d="M412.9,18.44,398.36,22.5l-1.48,6.64h-6.43l-1.85,8.1H395l-3.33,14.89a23.3,23.3,0,0,0-.59,5c0,5.94,4,8,9.6,8a40.25,40.25,0,0,0,10.71-1.47l1.41-8.31a12.28,12.28,0,0,1-4.14.76c-2,0-3.32-.7-3.32-2.79a10.18,10.18,0,0,1,.29-2.59l3-13.57h8.13l1.76-8.1h-8Z" transform="translate(-0.01 0)"/></g><g id="g1336"><path id="path1338" class="cls-1" d="M461.93,29.07H448.27L443.7,49.75c-.7,3.42-2.7,7.25-7,7.25-2.66,0-3.76-1.33-3.76-3.49a15.87,15.87,0,0,1,.44-3.21L438.15,29H424.49l-5.32,24a16.64,16.64,0,0,0-.36,3.77c0,6,4.35,8.39,10.42,8.39,6.27,0,10.33-3.14,13.44-7l-1,6.22h12.84a64.72,64.72,0,0,1,1.33-7.63Z" transform="translate(-0.01 0)"/></g><g id="g1340"><path id="path1342" class="cls-1" d="M494.34,28.36c-5.84,0-10.27,3.64-12.78,8.39L483,29.21H470.12a54.18,54.18,0,0,1-1.4,7.55l-6.21,27.68h13.66l3.18-14.26c1.25-5.53,5.31-10.55,11.66-10.55a7.53,7.53,0,0,1,3.1.49l3-11.4a9.54,9.54,0,0,0-2.8-.35" transform="translate(-0.01 0)"/></g><g id="g1344"><path class="cls-1" d="M213,14.7c-.63-1.57-18.26-13-39-14.37-20.25-2.15-44,6.06-70.57,24.39-3.32,2.3-6.58,4.45-9.67,6.4-21.31-14.18-40.32-21-56.49-20.19C17.59,11,1.51,21.18,1,22.67a1.09,1.09,0,0,0,.17,1.12c.64.73,2,.45,5.68-.31,5.82-1.21,15.57-3.23,27.13-1.83,12.75.94,28,6.93,45.46,17.8C62.82,48.23,48,52.75,35.35,52.9c-12.26.7-22.75-2-29-3.63-4-1-5.42-1.41-6.08-.66A1.1,1.1,0,0,0,.1,49.77c.63,1.57,18.24,13,39,14.38a60.81,60.81,0,0,0,6.38.33c14.57,0,30.93-5,48.7-15q2.34,1.7,4.7,3.47c24.48,18.46,46.2,27.8,64.57,27.8q1.29,0,2.55-.06a67.45,67.45,0,0,0,25.43-5.32c6.5-2.72,10.57-5.64,10.85-6.42a1.08,1.08,0,0,0-.17-1.12c-.65-.74-2-.45-5.69.31-5.82,1.21-15.56,3.23-27.12,1.83C152.77,68.7,132,59,107.7,41.12c.67-.45,1.35-.9,2-1.37,26.74-18.48,49.63-28,68.08-28.17,12.25-.69,22.73,2,29,3.63,4.07,1,5.44,1.4,6.11.65A1.1,1.1,0,0,0,213,14.7ZM39.22,62.7C21,61.46,5.59,52.45,2.16,49.81c.94.17,2.39.54,3.8.91,6.35,1.64,17,4.39,29.44,3.68,12.69-.14,27.51-4.61,44.08-13.28l13.33,7.4c-19.87,11-37.87,15.8-53.54,14.13Zm129.92,8.78c11.78,1.42,22-.71,27.57-1.85,1.32-.27,2.67-.55,3.53-.67C197,71.4,183.07,79.12,165.95,79.21c-18.58.9-40.84-8.33-66.18-27.44-1.7-1.28-3.41-2.54-5.1-3.77l-.43-.31h0c-4.38-3.16-8.71-6.1-12.89-8.73-18.09-11.44-34-17.73-47.21-18.71a65.9,65.9,0,0,0-8-.48A93.18,93.18,0,0,0,6.56,22c-1.32.27-2.66.55-3.53.66,3.2-2.44,17.13-10.16,34.29-10.24,16-.77,34.82,6,56,20.2,3.32,2.22,6.74,4.66,10.17,7.24l2.44,1.82c25,18.48,46.25,28.49,63.26,29.75Zm38-57.68c-6.35-1.63-17-4.37-29.42-3.67-18.72.22-41.9,9.79-68.89,28.44-.8.56-1.62,1.11-2.44,1.65-.67-.49-1.34-1-2-1.5-3.12-2.35-6.23-4.58-9.27-6.64,3-1.86,6-3.9,9.16-6.07C130.56,7.83,154-.29,173.88,1.83,192.11,3,207.58,12,211,14.67c-1-.17-2.41-.55-3.83-.92Z" transform="translate(-0.01 0)"/></g></g></g></g></svg>